<svg width="80" height="63" viewBox="0 0 80 63" fill="none" xmlns="http://www.w3.org/2000/svg">
<path d="M72.8145 48.3535C76.7122 48.3535 79.8719 45.2066 79.8719 41.3247C79.8719 37.4428 76.7122 34.2959 72.8145 34.2959C68.9168 34.2959 65.7571 37.4428 65.7571 41.3247C65.7571 45.2066 68.9168 48.3535 72.8145 48.3535Z" fill="white"/>
<path d="M8.0703 48.2959C11.9954 48.2959 15.1773 45.1268 15.1773 41.2176C15.1773 37.3084 11.9954 34.1394 8.0703 34.1394C4.14522 34.1394 0.963318 37.3084 0.963318 41.2176C0.963318 45.1268 4.14522 48.2959 8.0703 48.2959Z" fill="white"/>
<path fill-rule="evenodd" clip-rule="evenodd" d="M33.3912 48.2115C33.3912 48.2115 14.7452 11.7559 10.522 5.09146C8.29974 1.51322 6.33592 0.704103 2.29664 0.687632H0.299744V0.0288086L3.60724 0.0411615H18.2367C24.7214 0.247044 26.0134 3.97969 27.2165 6.28763C28.8703 9.65999 31.109 13.757 33.2775 17.9138C37.7116 26.4209 41.9928 34.6768 41.9928 34.6768L33.3912 48.2115Z" fill="white"/>
<path fill-rule="evenodd" clip-rule="evenodd" d="M62.9829 48.3824H42.4413V47.8285H43.969C44.707 47.8285 45.0791 47.46 45.0791 46.7229V1.65941C45.0791 0.922353 44.707 0.553824 43.969 0.553824H42.4413V0H62.9829V0.553824H61.4574C60.7152 0.553824 60.3473 0.922353 60.3473 1.65941V46.7353C60.3473 47.4724 60.7152 47.8409 61.4574 47.8409H62.9829V48.3824Z" fill="white"/>
<path d="M5.81085 62.8332H4.90129L4.28114 61.0318H1.49664L0.876486 62.8332H0L2.33592 56.3685H3.47494L5.81085 62.8332ZM4.00827 60.2926L2.89406 57.12L1.75504 60.2926H4.00827Z" fill="white"/>
<path d="M11.4708 58.8824V59.2941C11.4695 59.6124 11.4356 59.9298 11.3695 60.2412C11.2989 60.5892 11.1755 60.9245 11.0036 61.2356L12.6325 62.8332H11.5762L10.5902 61.8594C10.3215 62.2188 9.97541 62.5136 9.57725 62.7221C9.24524 62.882 8.88145 62.9657 8.51265 62.9671C7.96664 62.9864 7.43373 62.7979 7.02221 62.44C6.62754 62.0898 6.41006 61.5826 6.42893 61.0565C6.4233 60.8215 6.46186 60.5876 6.54262 60.3668C6.60853 60.1883 6.69673 60.0189 6.80516 59.8624C6.91244 59.7189 7.03825 59.5901 7.17932 59.4794C7.32256 59.3639 7.47384 59.2586 7.63203 59.1644C7.36439 59.0023 7.13237 58.788 6.94986 58.5344C6.80279 58.2945 6.73082 58.0164 6.74314 57.7356C6.74282 57.5457 6.78225 57.3577 6.8589 57.1838C6.93937 57.0024 7.05613 56.8391 7.20206 56.7041C7.36347 56.5529 7.55505 56.4371 7.76433 56.3644C8.00933 56.2756 8.26846 56.2316 8.52919 56.2347C8.95746 56.2205 9.37723 56.356 9.71575 56.6177C10.0116 56.8489 10.1821 57.2046 10.1767 57.5791C10.175 57.7247 10.1577 57.8696 10.1251 58.0115C10.0934 58.1654 10.0331 58.312 9.94728 58.4438C9.84213 58.6027 9.70991 58.7421 9.55658 58.8556C9.35588 59.0021 9.13241 59.1147 8.89508 59.1891L10.4951 60.7621C10.5379 60.6377 10.5684 60.5094 10.586 60.3791C10.6065 60.2351 10.6182 60.0901 10.6212 59.9447C10.6212 59.7841 10.6212 59.6029 10.6212 59.4032C10.6212 59.2035 10.6212 59.0347 10.6212 58.8947L11.4708 58.8824ZM10.1747 61.4621L8.10748 59.4382C7.89329 59.5484 7.71107 59.7114 7.57828 59.9118C7.48767 60.0371 7.41787 60.1761 7.37156 60.3235C7.31797 60.4976 7.29216 60.6789 7.29508 60.8609C7.27594 61.239 7.40828 61.6093 7.66304 61.8903C7.94122 62.1606 8.32114 62.3011 8.70903 62.2774C8.98691 62.2721 9.25961 62.2016 9.5049 62.0715C9.77837 61.9328 10.0096 61.7238 10.1747 61.4662V61.4621ZM9.34779 57.6594C9.35798 57.4183 9.26655 57.184 9.0956 57.013C8.92897 56.8549 8.70544 56.7702 8.47544 56.7782C8.23142 56.7698 7.99561 56.8666 7.82841 57.0438C7.66164 57.2207 7.57174 57.456 7.57828 57.6985C7.57544 57.9036 7.63528 58.1046 7.74986 58.275C7.95071 58.5183 8.19714 58.7204 8.47544 58.87C8.72861 58.7883 8.95167 58.6336 9.11627 58.4253C9.27066 58.2018 9.34826 57.9346 9.33746 57.6635L9.34779 57.6594Z" fill="white"/>
<path fill-rule="evenodd" clip-rule="evenodd" d="M18.9168 62.8332H18.0631V57.2641L16.2791 61.0523H15.7706L13.999 57.2641V62.8332H13.201V56.3685H14.3649L16.0765 59.9673L17.7302 56.3685H18.9168V62.8332Z" fill="white"/>
<path fill-rule="evenodd" clip-rule="evenodd" d="M28.5044 62.8333H27.6506V57.1324H25.3313C25.3313 57.4597 25.3106 57.7809 25.2961 58.0938C25.2816 58.4068 25.2672 58.6888 25.2589 58.9338C25.2362 59.5515 25.1969 60.0621 25.1452 60.4615C25.1047 60.7955 25.0356 61.1254 24.9385 61.4477C24.8726 61.6654 24.7774 61.8732 24.6553 62.0653C24.5514 62.2157 24.4307 62.3538 24.2956 62.4771C24.1727 62.5949 24.0281 62.6879 23.8698 62.7509C23.7061 62.8094 23.533 62.8373 23.3592 62.8333H23.14H22.9581V61.9994H23.0181H23.1276H23.2558C23.3556 61.9996 23.4547 61.9836 23.5493 61.9521C23.6379 61.9219 23.718 61.871 23.7829 61.8038C24.0254 61.5143 24.1809 61.1625 24.2315 60.7888C24.3493 60.1235 24.4184 59.4506 24.4382 58.7753C24.4506 58.4912 24.4672 58.1144 24.4816 57.645C24.4961 57.1756 24.5127 56.7474 24.523 56.3562H28.5023L28.5044 62.8333Z" fill="white"/>
<path d="M32.1179 59.7059H31.0843V62.8312H30.2305V56.3665H31.0843V58.9544H32.1592C32.2626 58.0829 32.574 57.4117 33.0936 56.9409C33.6332 56.4621 34.3372 56.2085 35.0595 56.2327C35.9773 56.2327 36.6974 56.5312 37.2197 57.1282C37.742 57.7253 38.0031 58.5488 38.0031 59.5988C38.0031 60.6543 37.7392 61.4779 37.2114 62.0694C36.0366 63.2408 34.1357 63.2573 32.9406 62.1065C32.4114 61.5424 32.1372 60.7422 32.1179 59.7059ZM37.1142 59.6009C37.1142 58.7444 36.9296 58.0925 36.5602 57.645C36.1943 57.1992 35.6392 56.9506 35.0615 56.9738C34.4812 56.9501 33.9231 57.1975 33.5525 57.643C33.1818 58.089 32.9964 58.7417 32.9964 59.6009C32.9964 60.4601 33.1825 61.1093 33.5546 61.5485C33.9362 61.9759 34.4831 62.2204 35.0574 62.2204C35.6317 62.2204 36.1786 61.9759 36.5602 61.5485C36.931 61.1025 37.1156 60.4539 37.1142 59.603V59.6009Z" fill="white"/>
<path d="M44.2067 60.8321C44.2103 61.1257 44.1474 61.4163 44.0228 61.6824C43.9106 61.9238 43.7427 62.1354 43.5328 62.3C43.3033 62.4854 43.0401 62.6252 42.7576 62.7118C42.4087 62.8011 42.0491 62.842 41.6889 62.8332H39.3592V56.3685H43.6589V57.1324H40.2129V58.9029H41.7137C42.0715 58.8976 42.4291 58.9231 42.7824 58.9791C43.0685 59.0351 43.3367 59.1595 43.5638 59.3415C43.7778 59.5073 43.9445 59.7259 44.0476 59.9756C44.1571 60.2478 44.2112 60.5389 44.2067 60.8321ZM43.3137 60.8485C43.318 60.6524 43.2814 60.4575 43.2062 60.2762C43.1358 60.1129 43.0186 59.974 42.8693 59.8768C42.7058 59.7673 42.5175 59.7001 42.3215 59.6812C42.0308 59.6545 41.7389 59.6428 41.447 59.6462H40.2067V62.0982H41.4181C41.7134 62.1042 42.0086 62.0856 42.3008 62.0427C42.495 62.0095 42.6797 61.935 42.8424 61.8244C42.9912 61.7238 43.1127 61.588 43.1959 61.4291C43.2786 61.2469 43.3189 61.0484 43.3137 60.8485Z" fill="white"/>
<path fill-rule="evenodd" clip-rule="evenodd" d="M50.3152 62.8333H49.4656V57.6471L46.276 62.8271H45.4139V56.3624H46.2615V61.4641L49.4057 56.3685H50.3069L50.3152 62.8333Z" fill="white"/>
<path fill-rule="evenodd" clip-rule="evenodd" d="M57.7551 62.8332H56.9013V57.2641L55.1173 61.0523H54.6088L52.8372 57.2641V62.8332H52.0393V56.3685H53.2031L54.9148 59.9673L56.5685 56.3685H57.753L57.7551 62.8332Z" fill="white"/>
<path d="M64.2646 57.1118C64.5379 57.4198 64.7428 57.7818 64.8661 58.1741C65.1473 59.1068 65.1473 60.1012 64.8661 61.0338C64.7425 61.422 64.539 61.7803 64.2687 62.0859C64.011 62.3737 63.6907 62.599 63.3323 62.7447C62.5377 63.0439 61.6607 63.0439 60.8661 62.7447C60.5058 62.6012 60.1833 62.3772 59.9235 62.09C59.6538 61.7832 59.4505 61.4244 59.3261 61.0359C59.0491 60.1075 59.0491 59.119 59.3261 58.1906C59.4516 57.7951 59.657 57.4294 59.9297 57.1159C60.1879 56.8279 60.5109 56.605 60.8723 56.4653C61.6662 56.1619 62.5446 56.1619 63.3385 56.4653C63.6919 56.609 64.0084 56.8299 64.2646 57.1118ZM64.1881 59.6029C64.1881 58.7629 64.0014 58.1158 63.6279 57.6615C63.2384 57.2253 62.6802 56.9757 62.094 56.9757C61.5079 56.9757 60.9497 57.2253 60.5602 57.6615C60.1881 58.1158 60.0021 58.7629 60.0021 59.6029C60.0021 60.4429 60.1909 61.0949 60.5685 61.5588C60.96 61.9847 61.5132 62.2272 62.093 62.2272C62.6728 62.2272 63.226 61.9847 63.6175 61.5588C63.9979 61.1018 64.1881 60.4498 64.1881 59.6029Z" fill="white"/>
<path d="M71.2703 60.8444C71.2764 61.1378 71.2148 61.4287 71.0905 61.6947C70.9769 61.9318 70.8099 62.1396 70.6026 62.302C70.3674 62.4906 70.0969 62.6305 69.8067 62.7138C69.4465 62.8028 69.076 62.8437 68.7049 62.8353H66.431V56.3706H68.3328C68.6844 56.3644 69.036 56.3823 69.385 56.4241C69.6182 56.4585 69.8439 56.5316 70.0527 56.6403C70.2679 56.7455 70.4465 56.9126 70.5654 57.12C70.6764 57.3371 70.7311 57.5785 70.7246 57.8221C70.7331 58.1008 70.652 58.3749 70.4931 58.6044C70.332 58.8252 70.1191 59.0034 69.8729 59.1232V59.1582C70.2734 59.226 70.6383 59.4288 70.9065 59.7326C71.1589 60.0472 71.2881 60.4422 71.2703 60.8444ZM69.8357 57.9312C69.8396 57.7952 69.8127 57.6601 69.7571 57.5359C69.7029 57.4256 69.6154 57.335 69.507 57.2765C69.3557 57.1926 69.1877 57.1427 69.015 57.1303C68.8228 57.1118 68.585 57.1035 68.2998 57.1035H67.2827V58.9688H68.3866C68.6003 58.9722 68.8139 58.9584 69.0254 58.9276C69.1816 58.901 69.3307 58.8429 69.4636 58.7568C69.5931 58.6777 69.6938 58.5593 69.7509 58.4191C69.8106 58.2635 69.8394 58.0978 69.8357 57.9312ZM70.3835 60.8794C70.3924 60.6672 70.3521 60.4559 70.2657 60.2618C70.172 60.0922 70.0275 59.9562 69.8522 59.8726C69.6948 59.7953 69.5246 59.7472 69.3499 59.7306C69.1116 59.7063 68.8721 59.6953 68.6326 59.6976H67.291V62.1023H68.4197C68.7273 62.1071 69.0349 62.0878 69.3396 62.0447C69.5474 62.0199 69.7472 61.9496 69.9246 61.8388C70.0725 61.7415 70.194 61.6093 70.2781 61.4538C70.3588 61.2735 70.3949 61.0765 70.3835 60.8794Z" fill="white"/>
<path d="M77.2837 60.8321C77.2879 61.1255 77.2258 61.4161 77.1018 61.6823C76.9897 61.9238 76.8218 62.1354 76.6119 62.3C76.3824 62.4854 76.1192 62.6252 75.8367 62.7118C75.4871 62.8013 75.1268 62.8421 74.7659 62.8332H72.4817V56.3685H73.3354V58.9029H74.7928C75.1506 58.8976 75.5082 58.9231 75.8615 58.9791C76.1475 59.0355 76.4155 59.1598 76.6429 59.3415C76.8569 59.5073 77.0236 59.7259 77.1266 59.9756C77.2354 60.2479 77.2888 60.539 77.2837 60.8321ZM76.3928 60.8485C76.396 60.6525 76.3595 60.4578 76.2853 60.2762C76.2148 60.1129 76.0976 59.974 75.9484 59.8768C75.7847 59.7676 75.5965 59.7004 75.4005 59.6812C75.1099 59.6545 74.818 59.6428 74.5261 59.6462H73.3354V62.0982H74.5034C74.7987 62.1042 75.0939 62.0856 75.3861 62.0426C75.5796 62.0094 75.7636 61.935 75.9256 61.8244C76.0756 61.7244 76.1978 61.5885 76.2812 61.4291C76.3618 61.2464 76.3999 61.0479 76.3928 60.8485ZM78.8838 62.8332H78.03V56.3685H78.8838V62.8332Z" fill="white"/>
</svg>
